<?xml version="1.0" encoding="UTF-8" standalone="no"?>
<!DOCTYPE svg PUBLIC "-//W3C//DTD SVG 1.1//EN" "http://www.w3.org/Graphics/SVG/1.1/DTD/svg11.dtd">
<svg width="100%" height="100%" viewBox="0 0 512 512" version="1.1" xmlns="http://www.w3.org/2000/svg" xmlns:xlink="http://www.w3.org/1999/xlink" xml:space="preserve" xmlns:serif="http://www.serif.com/" style="fill-rule:evenodd;clip-rule:evenodd;stroke-linecap:round;stroke-miterlimit:10;">
    <g id="chip">
        <g transform="matrix(1,0,0,1,8,0)">
            <path d="M128,36C128,33.792 126.208,32 124,32L116,32C113.792,32 112,33.792 112,36L112,68C112,70.208 113.792,72 116,72L124,72C126.208,72 128,70.208 128,68L128,36Z" style="fill:rgb(99,107,112);"/>
        </g>
        <g transform="matrix(1,0,0,1,104,0)">
            <path d="M128,36C128,33.792 126.208,32 124,32L116,32C113.792,32 112,33.792 112,36L112,68C112,70.208 113.792,72 116,72L124,72C126.208,72 128,70.208 128,68L128,36Z" style="fill:rgb(99,107,112);"/>
        </g>
        <g transform="matrix(1,0,0,1,200,0)">
            <path d="M128,36C128,33.792 126.208,32 124,32L116,32C113.792,32 112,33.792 112,36L112,68C112,70.208 113.792,72 116,72L124,72C126.208,72 128,70.208 128,68L128,36Z" style="fill:rgb(99,107,112);"/>
        </g>
        <g transform="matrix(1,0,0,1,40,0)">
            <path d="M128,36C128,33.792 126.208,32 124,32L116,32C113.792,32 112,33.792 112,36L112,68C112,70.208 113.792,72 116,72L124,72C126.208,72 128,70.208 128,68L128,36Z" style="fill:rgb(99,107,112);"/>
        </g>
        <g transform="matrix(1,0,0,1,136,0)">
            <path d="M128,36C128,33.792 126.208,32 124,32L116,32C113.792,32 112,33.792 112,36L112,68C112,70.208 113.792,72 116,72L124,72C126.208,72 128,70.208 128,68L128,36Z" style="fill:rgb(99,107,112);"/>
        </g>
        <g transform="matrix(1,0,0,1,232,0)">
            <path d="M128,36C128,33.792 126.208,32 124,32L116,32C113.792,32 112,33.792 112,36L112,68C112,70.208 113.792,72 116,72L124,72C126.208,72 128,70.208 128,68L128,36Z" style="fill:rgb(99,107,112);"/>
        </g>
        <g transform="matrix(1,0,0,1,72,0)">
            <path d="M128,36C128,33.792 126.208,32 124,32L116,32C113.792,32 112,33.792 112,36L112,68C112,70.208 113.792,72 116,72L124,72C126.208,72 128,70.208 128,68L128,36Z" style="fill:rgb(99,107,112);"/>
        </g>
        <g transform="matrix(1,0,0,1,168,0)">
            <path d="M128,36C128,33.792 126.208,32 124,32L116,32C113.792,32 112,33.792 112,36L112,68C112,70.208 113.792,72 116,72L124,72C126.208,72 128,70.208 128,68L128,36Z" style="fill:rgb(99,107,112);"/>
        </g>
        <g transform="matrix(1,0,0,1,264,0)">
            <path d="M128,36C128,33.792 126.208,32 124,32L116,32C113.792,32 112,33.792 112,36L112,68C112,70.208 113.792,72 116,72L124,72C126.208,72 128,70.208 128,68L128,36Z" style="fill:rgb(99,107,112);"/>
        </g>
        <g transform="matrix(1,0,0,1,8,408)">
            <path d="M128,36C128,33.792 126.208,32 124,32L116,32C113.792,32 112,33.792 112,36L112,68C112,70.208 113.792,72 116,72L124,72C126.208,72 128,70.208 128,68L128,36Z" style="fill:rgb(99,107,112);"/>
        </g>
        <g transform="matrix(1,0,0,1,104,408)">
            <path d="M128,36C128,33.792 126.208,32 124,32L116,32C113.792,32 112,33.792 112,36L112,68C112,70.208 113.792,72 116,72L124,72C126.208,72 128,70.208 128,68L128,36Z" style="fill:rgb(99,107,112);"/>
        </g>
        <g transform="matrix(1,0,0,1,200,408)">
            <path d="M128,36C128,33.792 126.208,32 124,32L116,32C113.792,32 112,33.792 112,36L112,68C112,70.208 113.792,72 116,72L124,72C126.208,72 128,70.208 128,68L128,36Z" style="fill:rgb(99,107,112);"/>
        </g>
        <g transform="matrix(1,0,0,1,40,408)">
            <path d="M128,36C128,33.792 126.208,32 124,32L116,32C113.792,32 112,33.792 112,36L112,68C112,70.208 113.792,72 116,72L124,72C126.208,72 128,70.208 128,68L128,36Z" style="fill:rgb(99,107,112);"/>
        </g>
        <g transform="matrix(1,0,0,1,136,408)">
            <path d="M128,36C128,33.792 126.208,32 124,32L116,32C113.792,32 112,33.792 112,36L112,68C112,70.208 113.792,72 116,72L124,72C126.208,72 128,70.208 128,68L128,36Z" style="fill:rgb(99,107,112);"/>
        </g>
        <g transform="matrix(1,0,0,1,232,408)">
            <path d="M128,36C128,33.792 126.208,32 124,32L116,32C113.792,32 112,33.792 112,36L112,68C112,70.208 113.792,72 116,72L124,72C126.208,72 128,70.208 128,68L128,36Z" style="fill:rgb(99,107,112);"/>
        </g>
        <g transform="matrix(1,0,0,1,72,408)">
            <path d="M128,36C128,33.792 126.208,32 124,32L116,32C113.792,32 112,33.792 112,36L112,68C112,70.208 113.792,72 116,72L124,72C126.208,72 128,70.208 128,68L128,36Z" style="fill:rgb(99,107,112);"/>
        </g>
        <g transform="matrix(1,0,0,1,168,408)">
            <path d="M128,36C128,33.792 126.208,32 124,32L116,32C113.792,32 112,33.792 112,36L112,68C112,70.208 113.792,72 116,72L124,72C126.208,72 128,70.208 128,68L128,36Z" style="fill:rgb(99,107,112);"/>
        </g>
        <g transform="matrix(1,0,0,1,264,408)">
            <path d="M128,36C128,33.792 126.208,32 124,32L116,32C113.792,32 112,33.792 112,36L112,68C112,70.208 113.792,72 116,72L124,72C126.208,72 128,70.208 128,68L128,36Z" style="fill:rgb(99,107,112);"/>
        </g>
        <path d="M448,104C448,93.391 443.786,83.217 436.284,75.716C428.783,68.214 418.609,64 408,64L104,64C93.391,64 83.217,68.214 75.716,75.716C68.214,83.217 64,93.391 64,104L64,408C64,418.609 68.214,428.783 75.716,436.284C83.217,443.786 93.391,448 104,448L408,448C418.609,448 428.783,443.786 436.284,436.284C443.786,428.783 448,418.609 448,408L448,104ZM432,104C432,90.745 421.255,80 408,80L104,80C90.745,80 80,90.745 80,104L80,408C80,421.255 90.745,432 104,432L408,432C421.255,432 432,421.255 432,408L432,104Z" style="fill:rgb(99,107,112);"/>
        <circle cx="408" cy="104" r="8" style="fill:rgb(99,107,112);"/>
        <path d="M72,124C72,121.792 70.208,120 68,120L36,120C33.792,120 32,121.792 32,124L32,132C32,134.208 33.792,136 36,136L68,136C70.208,136 72,134.208 72,132L72,124Z" style="fill:rgb(99,107,112);"/>
        <g transform="matrix(1,0,0,1,0,128)">
            <path d="M72,124C72,121.792 70.208,120 68,120L36,120C33.792,120 32,121.792 32,124L32,132C32,134.208 33.792,136 36,136L68,136C70.208,136 72,134.208 72,132L72,124Z" style="fill:rgb(99,107,112);"/>
        </g>
        <g transform="matrix(1,0,0,1,0,32)">
            <path d="M72,124C72,121.792 70.208,120 68,120L36,120C33.792,120 32,121.792 32,124L32,132C32,134.208 33.792,136 36,136L68,136C70.208,136 72,134.208 72,132L72,124Z" style="fill:rgb(99,107,112);"/>
        </g>
        <g transform="matrix(1,0,0,1,0,160)">
            <path d="M72,124C72,121.792 70.208,120 68,120L36,120C33.792,120 32,121.792 32,124L32,132C32,134.208 33.792,136 36,136L68,136C70.208,136 72,134.208 72,132L72,124Z" style="fill:rgb(99,107,112);"/>
        </g>
        <g transform="matrix(1,0,0,1,0,64)">
            <path d="M72,124C72,121.792 70.208,120 68,120L36,120C33.792,120 32,121.792 32,124L32,132C32,134.208 33.792,136 36,136L68,136C70.208,136 72,134.208 72,132L72,124Z" style="fill:rgb(99,107,112);"/>
        </g>
        <g transform="matrix(1,0,0,1,0,192)">
            <path d="M72,124C72,121.792 70.208,120 68,120L36,120C33.792,120 32,121.792 32,124L32,132C32,134.208 33.792,136 36,136L68,136C70.208,136 72,134.208 72,132L72,124Z" style="fill:rgb(99,107,112);"/>
        </g>
        <g transform="matrix(1,0,0,1,0,96)">
            <path d="M72,124C72,121.792 70.208,120 68,120L36,120C33.792,120 32,121.792 32,124L32,132C32,134.208 33.792,136 36,136L68,136C70.208,136 72,134.208 72,132L72,124Z" style="fill:rgb(99,107,112);"/>
        </g>
        <g transform="matrix(1,0,0,1,0,224)">
            <path d="M72,124C72,121.792 70.208,120 68,120L36,120C33.792,120 32,121.792 32,124L32,132C32,134.208 33.792,136 36,136L68,136C70.208,136 72,134.208 72,132L72,124Z" style="fill:rgb(99,107,112);"/>
        </g>
        <g transform="matrix(1,0,0,1,0,256)">
            <path d="M72,124C72,121.792 70.208,120 68,120L36,120C33.792,120 32,121.792 32,124L32,132C32,134.208 33.792,136 36,136L68,136C70.208,136 72,134.208 72,132L72,124Z" style="fill:rgb(99,107,112);"/>
        </g>
        <g transform="matrix(1,0,0,1,408,0)">
            <path d="M72,124C72,121.792 70.208,120 68,120L36,120C33.792,120 32,121.792 32,124L32,132C32,134.208 33.792,136 36,136L68,136C70.208,136 72,134.208 72,132L72,124Z" style="fill:rgb(99,107,112);"/>
        </g>
        <g transform="matrix(1,0,0,1,408,128)">
            <path d="M72,124C72,121.792 70.208,120 68,120L36,120C33.792,120 32,121.792 32,124L32,132C32,134.208 33.792,136 36,136L68,136C70.208,136 72,134.208 72,132L72,124Z" style="fill:rgb(99,107,112);"/>
        </g>
        <g transform="matrix(1,0,0,1,408,32)">
            <path d="M72,124C72,121.792 70.208,120 68,120L36,120C33.792,120 32,121.792 32,124L32,132C32,134.208 33.792,136 36,136L68,136C70.208,136 72,134.208 72,132L72,124Z" style="fill:rgb(99,107,112);"/>
        </g>
        <g transform="matrix(1,0,0,1,408,160)">
            <path d="M72,124C72,121.792 70.208,120 68,120L36,120C33.792,120 32,121.792 32,124L32,132C32,134.208 33.792,136 36,136L68,136C70.208,136 72,134.208 72,132L72,124Z" style="fill:rgb(99,107,112);"/>
        </g>
        <g transform="matrix(1,0,0,1,408,64)">
            <path d="M72,124C72,121.792 70.208,120 68,120L36,120C33.792,120 32,121.792 32,124L32,132C32,134.208 33.792,136 36,136L68,136C70.208,136 72,134.208 72,132L72,124Z" style="fill:rgb(99,107,112);"/>
        </g>
        <g transform="matrix(1,0,0,1,408,192)">
            <path d="M72,124C72,121.792 70.208,120 68,120L36,120C33.792,120 32,121.792 32,124L32,132C32,134.208 33.792,136 36,136L68,136C70.208,136 72,134.208 72,132L72,124Z" style="fill:rgb(99,107,112);"/>
        </g>
        <g transform="matrix(1,0,0,1,408,96)">
            <path d="M72,124C72,121.792 70.208,120 68,120L36,120C33.792,120 32,121.792 32,124L32,132C32,134.208 33.792,136 36,136L68,136C70.208,136 72,134.208 72,132L72,124Z" style="fill:rgb(99,107,112);"/>
        </g>
        <g transform="matrix(1,0,0,1,408,224)">
            <path d="M72,124C72,121.792 70.208,120 68,120L36,120C33.792,120 32,121.792 32,124L32,132C32,134.208 33.792,136 36,136L68,136C70.208,136 72,134.208 72,132L72,124Z" style="fill:rgb(99,107,112);"/>
        </g>
        <g transform="matrix(1,0,0,1,408,256)">
            <path d="M72,124C72,121.792 70.208,120 68,120L36,120C33.792,120 32,121.792 32,124L32,132C32,134.208 33.792,136 36,136L68,136C70.208,136 72,134.208 72,132L72,124Z" style="fill:rgb(99,107,112);"/>
        </g>
    </g>
    <g transform="matrix(1.3,0,0,1.33333,-75.2,-93.3333)">
        <g transform="matrix(0.769231,-0,-0,0.75,57.8462,70)">
            <path d="M279.75,162.833C285.729,162.833 290.583,157.979 290.583,152C290.583,146.021 285.729,141.167 279.75,141.167C273.771,141.167 268.917,146.021 268.917,152C268.917,157.979 273.771,162.833 279.75,162.833Z" style="fill:none;stroke:rgb(221,179,16);stroke-width:10.83px;"/>
            <path d="M192.25,370.833C186.271,370.833 181.417,365.979 181.417,360C181.417,354.021 186.271,349.167 192.25,349.167C198.229,349.167 203.083,354.021 203.083,360C203.083,365.979 198.229,370.833 192.25,370.833Z" style="fill:none;stroke:rgb(221,179,16);stroke-width:10.83px;"/>
            <path d="M268.917,152L192,152L192,240L240,240L240,360L203.083,360" style="fill:none;stroke:rgb(221,179,16);stroke-width:10.83px;stroke-linejoin:round;stroke-miterlimit:1.5;"/>
        </g>
    </g>
    <path d="M309.167,151.75C309.167,157.729 314.021,162.583 320,162.583C325.979,162.583 330.833,157.729 330.833,151.75C330.833,145.771 325.979,140.917 320,140.917C314.021,140.917 309.167,145.771 309.167,151.75Z" style="fill:none;stroke:rgb(221,179,16);stroke-width:10.83px;"/>
    <path d="M112.25,250.833C106.271,250.833 101.417,245.979 101.417,240C101.417,234.021 106.271,229.167 112.25,229.167C118.229,229.167 123.083,234.021 123.083,240C123.083,245.979 118.229,250.833 112.25,250.833Z" style="fill:none;stroke:rgb(221,179,16);stroke-width:10.83px;"/>
    <path d="M320,140.917L320,112L152,112L152,240L123.083,240" style="fill:none;stroke:rgb(221,179,16);stroke-width:10.83px;stroke-linejoin:round;stroke-miterlimit:1.5;"/>
    <path d="M141.167,359.75C141.167,365.729 146.021,370.583 152,370.583C157.979,370.583 162.833,365.729 162.833,359.75C162.833,353.771 157.979,348.917 152,348.917C146.021,348.917 141.167,353.771 141.167,359.75Z" style="fill:none;stroke:rgb(221,179,16);stroke-width:10.83px;"/>
    <circle cx="191.75" cy="320" r="10.833" style="fill:none;stroke:rgb(221,179,16);stroke-width:10.83px;"/>
    <path d="M152,348.917L152,320L180.917,320" style="fill:none;stroke:rgb(221,179,16);stroke-width:10.83px;stroke-linejoin:round;stroke-miterlimit:1.5;"/>
    <path d="M191.75,290.833C197.729,290.833 202.583,285.979 202.583,280C202.583,274.021 197.729,269.167 191.75,269.167C185.771,269.167 180.917,274.021 180.917,280C180.917,285.979 185.771,290.833 191.75,290.833Z" style="fill:none;stroke:rgb(221,179,16);stroke-width:10.83px;"/>
    <circle cx="295.75" cy="400" r="10.833" style="fill:none;stroke:rgb(221,179,16);stroke-width:10.83px;"/>
    <path d="M180.917,280L112,280L112,400L284.917,400" style="fill:none;stroke:rgb(221,179,16);stroke-width:10.83px;stroke-linejoin:round;stroke-miterlimit:1.5;"/>
    <path d="M370.833,112.25C370.833,106.271 365.979,101.417 360,101.417C354.021,101.417 349.167,106.271 349.167,112.25C349.167,118.229 354.021,123.083 360,123.083C365.979,123.083 370.833,118.229 370.833,112.25Z" style="fill:none;stroke:rgb(221,179,16);stroke-width:10.83px;"/>
    <path d="M232.25,210.833C226.271,210.833 221.417,205.979 221.417,200C221.417,194.021 226.271,189.167 232.25,189.167C238.229,189.167 243.083,194.021 243.083,200C243.083,205.979 238.229,210.833 232.25,210.833Z" style="fill:none;stroke:rgb(221,179,16);stroke-width:10.83px;"/>
    <path d="M360,123.083L360,200L243.083,200" style="fill:none;stroke:rgb(221,179,16);stroke-width:10.83px;stroke-linejoin:round;stroke-miterlimit:1.5;"/>
    <path d="M399.75,290.833C405.729,290.833 410.583,285.979 410.583,280C410.583,274.021 405.729,269.167 399.75,269.167C393.771,269.167 388.917,274.021 388.917,280C388.917,285.979 393.771,290.833 399.75,290.833Z" style="fill:none;stroke:rgb(221,179,16);stroke-width:10.83px;"/>
    <path d="M309.167,248.25C309.167,242.271 314.021,237.417 320,237.417C325.979,237.417 330.833,242.271 330.833,248.25C330.833,254.229 325.979,259.083 320,259.083C314.021,259.083 309.167,254.229 309.167,248.25Z" style="fill:none;stroke:rgb(221,179,16);stroke-width:10.83px;"/>
    <path d="M388.917,280L320,280L320,259.083" style="fill:none;stroke:rgb(221,179,16);stroke-width:10.83px;stroke-linejoin:round;stroke-miterlimit:1.5;"/>
    <path d="M101.167,199.75C101.167,205.729 106.021,210.583 112,210.583C117.979,210.583 122.833,205.729 122.833,199.75C122.833,193.771 117.979,188.917 112,188.917C106.021,188.917 101.167,193.771 101.167,199.75Z" style="fill:none;stroke:rgb(221,179,16);stroke-width:10.83px;"/>
    <path d="M101.167,112.25C101.167,106.271 106.021,101.417 112,101.417C117.979,101.417 122.833,106.271 122.833,112.25C122.833,118.229 117.979,123.083 112,123.083C106.021,123.083 101.167,118.229 101.167,112.25Z" style="fill:none;stroke:rgb(221,179,16);stroke-width:10.83px;"/>
    <path d="M112,188.917L112,123.083" style="fill:none;stroke:rgb(221,179,16);stroke-width:10.83px;stroke-linejoin:round;stroke-miterlimit:1.5;"/>
    <circle cx="360.25" cy="400" r="10.833" style="fill:none;stroke:rgb(221,179,16);stroke-width:10.83px;"/>
    <path d="M269.167,248.25C269.167,242.271 274.021,237.417 280,237.417C285.979,237.417 290.833,242.271 290.833,248.25C290.833,254.229 285.979,259.083 280,259.083C274.021,259.083 269.167,254.229 269.167,248.25Z" style="fill:none;stroke:rgb(221,179,16);stroke-width:10.83px;"/>
    <path d="M371.083,400L400,400L400,320L280,320L280,259.083" style="fill:none;stroke:rgb(221,179,16);stroke-width:10.83px;stroke-linejoin:round;stroke-miterlimit:1.5;"/>
    <path d="M359.75,370.833C365.729,370.833 370.583,365.979 370.583,360C370.583,354.021 365.729,349.167 359.75,349.167C353.771,349.167 348.917,354.021 348.917,360C348.917,365.979 353.771,370.833 359.75,370.833Z" style="fill:none;stroke:rgb(221,179,16);stroke-width:10.83px;"/>
    <path d="M296.25,370.833C290.271,370.833 285.417,365.979 285.417,360C285.417,354.021 290.271,349.167 296.25,349.167C302.229,349.167 307.083,354.021 307.083,360C307.083,365.979 302.229,370.833 296.25,370.833Z" style="fill:none;stroke:rgb(221,179,16);stroke-width:10.83px;"/>
    <path d="M348.917,360L307.083,360" style="fill:none;stroke:rgb(221,179,16);stroke-width:10.83px;stroke-linejoin:round;stroke-miterlimit:1.5;"/>
    <path d="M410.833,152.25C410.833,146.271 405.979,141.417 400,141.417C394.021,141.417 389.167,146.271 389.167,152.25C389.167,158.229 394.021,163.083 400,163.083C405.979,163.083 410.833,158.229 410.833,152.25Z" style="fill:none;stroke:rgb(221,179,16);stroke-width:10.83px;"/>
    <path d="M410.833,215.75C410.833,221.729 405.979,226.583 400,226.583C394.021,226.583 389.167,221.729 389.167,215.75C389.167,209.771 394.021,204.917 400,204.917C405.979,204.917 410.833,209.771 410.833,215.75Z" style="fill:none;stroke:rgb(221,179,16);stroke-width:10.83px;"/>
    <path d="M400,163.083L400,204.917" style="fill:none;stroke:rgb(221,179,16);stroke-width:10.83px;stroke-linejoin:round;stroke-miterlimit:1.5;"/>
</svg>
